<?xml version="1.0" encoding="UTF-8"?>
<svg xmlns="http://www.w3.org/2000/svg" viewBox="0 0 960.23 299.14">
  <defs>
    <style>
      .cls-1 { fill: #c3a05a; }
    </style>
  </defs>
  <g>
    <path class="cls-1" d="M0,2.29v294.56c0,1.27,1.03,2.29,2.29,2.29h191.32c1.27,0,2.29-1.03,2.29-2.29V2.29c0-1.27-1.03-2.29-2.29-2.29H2.29C1.03,0,0,1.03,0,2.29ZM17,280.47v-74.56c0-.93.75-1.68,1.68-1.67l35.28.19h.16c8.78.1,16.95,4.08,22.44,10.95l53.36,66.76H18.67c-.92,0-1.67-.75-1.67-1.67ZM178.9,280.47c0,.92-.75,1.67-1.67,1.67h-13.17c-7.79,0-15.06-3.46-19.96-9.5-.05-.05-.1-.11-.14-.16l-21.48-26.88-32.64-40.83s-.08-.09-.11-.14h.01l87.5.49c.92,0,1.66.75,1.66,1.67v73.68ZM178.9,186.45c0,.93-.75,1.68-1.68,1.67l-44.12-.24-78.71-.44h-.16l-35.57-.2c-.92,0-1.66-.75-1.66-1.67V18.67c0-.92.75-1.67,1.67-1.67h158.56c.92,0,1.67.75,1.67,1.67v167.78Z"/>
    <g>
      <path class="cls-1" d="M324.36,130.4l-27.21-39.8h-30.6v39.8h-11.07V25.45h44.43c23.68,0,34.13,13.8,34.13,32.42,0,16.21-7.84,28.73-25.21,31.94v.32l28.9,40.28h-13.38ZM300.06,80.01c16.76,0,22.75-9.63,22.75-22.15s-6-21.82-22.75-21.82h-33.52v43.97h33.52Z"/>
      <path class="cls-1" d="M446.58,130.4v-35.3h-65.04v35.3h-10.76v-62.1c0-27.6,15.37-44.93,43.36-44.93s43.51,17.33,43.51,44.93v62.1h-11.07ZM446.58,68.29c0-21.18-11.07-34.34-32.59-34.34s-32.44,13.16-32.44,34.34v16.21h65.04v-16.21Z"/>
      <path class="cls-1" d="M496.85,130.4V25.45h35.98c34.75,0,53.35,21.02,53.35,52.48s-18.6,52.48-53.35,52.48h-35.98ZM532.83,119.81c28.44,0,42.28-16.69,42.28-41.88s-13.84-41.88-42.28-41.88h-24.91v83.77h24.91Z"/>
      <path class="cls-1" d="M622.61,130.4V25.45h73.8v10.59h-62.73v35.79h53.81v10.59h-53.81v37.39h62.73v10.59h-73.8Z"/>
      <path class="cls-1" d="M790.35,53.85c-.62-12.04-9.38-19.74-23.83-19.74s-23.83,8.02-23.83,20.38c0,29.53,60.27,4.81,60.27,46.22,0,19.58-14.45,31.93-36.59,31.93s-36.28-12.04-36.75-31.61h10.92c.46,13.32,9.84,21.02,25.83,21.02s25.83-8.18,25.83-21.02c0-30.01-60.27-4.81-60.27-46.22,0-18.62,13.84-31.29,34.59-31.29s33.82,12.04,34.44,30.33h-10.61Z"/>
      <path class="cls-1" d="M839.85,130.4V25.45h11.07v48.78h.31l47.35-48.78h14.3l-50.89,51.83,52.43,53.12h-14.61l-48.58-49.91h-.31v49.91h-11.07Z"/>
      <path class="cls-1" d="M949.16,130.4V25.45h11.07v104.95h-11.07Z"/>
    </g>
    <g>
      <path class="cls-1" d="M298.9,210.26c-.45-8.85-6.88-14.51-17.49-14.51s-17.49,5.9-17.49,14.98c0,21.71,44.24,3.54,44.24,33.97,0,14.39-10.61,23.47-26.86,23.47s-26.64-8.85-26.98-23.24h8.01c.34,9.79,7.22,15.45,18.96,15.45s18.96-6.02,18.96-15.45c0-22.06-44.24-3.54-44.24-33.97,0-13.68,10.16-23,25.4-23s24.83,8.85,25.28,22.3h-7.79Z"/>
      <path class="cls-1" d="M330.05,266.53v-77.15h8.13v35.86h.23l34.76-35.86h10.5l-37.36,38.1,38.49,39.05h-10.72l-35.67-36.69h-.23v36.69h-8.13Z"/>
      <path class="cls-1" d="M405.11,266.53v-77.15h8.13v77.15h-8.13Z"/>
      <path class="cls-1" d="M490.89,266.53v-46.83c0-14.86-7.9-24.07-22.8-24.07s-22.91,9.2-22.91,24.07v46.83h-8.13v-46.83c0-19.46,11.06-31.85,31.04-31.85s30.93,12.39,30.93,31.85v46.83h-8.13Z"/>
      <path class="cls-1" d="M627.25,215.21c-4.4-11.8-15.12-19.58-28.89-19.58-18.4,0-31.15,13.68-31.15,32.32s12.75,32.32,31.15,32.32c13.77,0,24.49-7.79,28.89-19.58h8.58c-4.74,16.4-18.96,27.37-37.47,27.37-23.03,0-39.28-16.99-39.28-40.11s16.25-40.11,39.28-40.11c18.51,0,32.73,10.97,37.47,27.37h-8.58Z"/>
      <path class="cls-1" d="M657.72,266.53v-77.15h8.13v69.36h44.7v7.79h-52.82Z"/>
      <path class="cls-1" d="M731.54,266.53v-77.15h8.13v77.15h-8.13Z"/>
      <path class="cls-1" d="M817.33,266.53v-46.83c0-14.86-7.9-24.07-22.8-24.07s-22.91,9.2-22.91,24.07v46.83h-8.13v-46.83c0-19.46,11.06-31.85,31.04-31.85s30.93,12.39,30.93,31.85v46.83h-8.13Z"/>
      <path class="cls-1" d="M849.38,266.53v-77.15h8.13v77.15h-8.13Z"/>
      <path class="cls-1" d="M947.47,215.21c-4.4-11.8-15.12-19.58-28.89-19.58-18.4,0-31.15,13.68-31.15,32.32s12.75,32.32,31.15,32.32c13.77,0,24.49-7.79,28.89-19.58h8.58c-4.74,16.4-18.96,27.37-37.47,27.37-23.03,0-39.28-16.99-39.28-40.11s16.25-40.11,39.28-40.11c18.51,0,32.73,10.97,37.47,27.37h-8.58Z"/>
    </g>
  </g>
</svg>
